# xmcd
#
# Track frame offsets: 
#        150
#        12222
#        22285
#        36772
#        52075
#        63197
#        76717
#        90222
#        103837
#        114197
#
# Disc length: 1666 seconds
#
# Revision: 0
# Processed by: cddbd v1.5.2PL0 Copyright (c) Steve Scherf et al.
# Submitted via: ExactAudioCopyFreeDBPlugin 1.0
#
DISCID=6f06800a
DTITLE=Various Artist - Country Music Cavalcade: For The Good Times (
DTITLE=Disc 2)
DYEAR=1997
DGENRE=Country
TTITLE0=Ray Peterson - Goodnight My Love (Pleasant Dreams)
TTITLE1=Hank Snow - Hula Love
TTITLE2=Jim Reeves - Guilty
TTITLE3=The Everly Brothers - Stories We Could Tell
TTITLE4=Charlie Rich - She Called Me Baby
TTITLE5=Gale Garnett - We'll Sing In The Sunshine
TTITLE6=Kay Starr - The Rock And Rock Waltz
TTITLE7=Willie Nelson - Fire And Rain
TTITLE8=Dean Martin - Memories Are Made Of This
TTITLE9=Sonny James - I'll Never Find Another You
EXTD=
EXTT0=
EXTT1=
EXTT2=
EXTT3=
EXTT4=
EXTT5=
EXTT6=
EXTT7=
EXTT8=
EXTT9=
PLAYORDER=
